<?xml version="1.0" standalone="no"?>
<!DOCTYPE svg PUBLIC "-//W3C//DTD SVG 20010904//EN"
 "http://www.w3.org/TR/2001/REC-SVG-20010904/DTD/svg10.dtd">
<svg version="1.0" xmlns="http://www.w3.org/2000/svg"
 width="700.000000pt" height="700.000000pt" viewBox="0 0 700.000000 700.000000"
 preserveAspectRatio="xMidYMid meet">
<metadata>
Created by potrace 1.11, written by Peter Selinger 2001-2013
</metadata>
<g transform="translate(0.000000,700.000000) scale(0.100000,-0.100000)"
fill="#000000" stroke="none">
<path d="M2065 6956 c-441 -146 -817 -361 -1175 -673 -43 -37 -81 -74 -84 -82
-5 -10 32 -52 108 -125 63 -61 286 -280 496 -486 209 -206 444 -436 520 -510
211 -205 835 -817 903 -885 50 -50 59 -56 55 -35 -3 14 -24 104 -48 200 -23
96 -44 181 -45 190 -4 18 -111 465 -155 645 -17 72 -49 202 -70 290 -34 143
-86 365 -95 405 -2 8 -13 53 -25 100 -12 47 -23 92 -25 100 -2 8 -9 38 -15 65
-6 28 -13 57 -15 65 -2 8 -24 101 -50 205 -25 105 -48 199 -51 210 -2 11 -7
34 -11 50 -4 17 -7 32 -8 35 -12 62 -70 280 -74 280 -3 0 -64 -20 -136 -44z"/>
<path d="M3167 6644 c-1 -1 -47 -4 -102 -8 -55 -3 -111 -8 -125 -10 -14 -3
-47 -7 -75 -11 -76 -9 -118 -16 -135 -20 -8 -2 -31 -7 -50 -10 -19 -3 -35 -7
-37 -8 -1 -2 4 -26 11 -55 8 -29 12 -52 10 -52 -2 0 1 -11 6 -25 5 -14 12 -36
14 -48 2 -12 19 -80 36 -152 37 -151 39 -162 46 -195 3 -14 22 -95 43 -180 22
-85 50 -204 65 -265 23 -100 170 -714 281 -1175 41 -169 87 -362 190 -790 20
-85 38 -156 39 -158 2 -1 75 32 162 74 87 42 186 89 219 104 33 15 114 54 180
85 66 31 145 68 175 82 30 14 138 66 239 114 101 49 185 89 186 89 2 0 75 34
162 76 262 126 450 215 588 279 39 18 124 59 190 90 124 59 270 129 410 195
44 21 142 67 218 104 l139 66 -47 87 c-325 606 -895 1136 -1523 1417 -250 112
-546 208 -742 240 -19 3 -46 8 -60 11 -61 12 -78 15 -130 20 -30 3 -66 8 -80
10 -78 13 -491 29 -503 19z"/>
<path d="M807 5496 c-123 -141 -276 -357 -371 -526 -56 -97 -165 -326 -204
-425 -50 -128 -134 -400 -149 -484 -2 -14 -10 -53 -18 -86 -19 -85 -40 -234
-53 -370 -14 -160 -7 -556 14 -695 22 -148 44 -267 79 -412 76 -324 254 -722
458 -1028 46 -69 163 -228 176 -240 4 -3 38 -43 78 -90 66 -79 233 -247 328
-330 81 -71 194 -160 203 -160 6 0 12 -4 14 -8 4 -11 145 -108 239 -164 87
-53 327 -178 379 -198 19 -7 58 -23 87 -36 118 -53 412 -142 588 -178 92 -19
137 -26 250 -40 33 -4 74 -9 90 -12 57 -9 490 -11 579 -3 165 15 267 30 381
55 39 8 79 16 90 18 78 15 315 85 329 97 6 5 3 24 -7 46 -9 21 -48 124 -87
228 -38 105 -79 213 -90 240 -18 47 -58 153 -292 770 -50 132 -103 274 -118
315 -15 41 -65 172 -109 290 -112 294 -178 468 -326 860 l-126 335 -214 210
c-117 116 -365 359 -550 540 -186 182 -392 384 -460 450 -67 66 -296 291 -510
500 -213 209 -439 431 -501 492 l-113 112 -64 -73z"/>
<path d="M6630 4411 c-52 -25 -122 -58 -155 -73 -33 -15 -116 -54 -185 -86
-69 -33 -150 -71 -180 -85 -30 -13 -95 -44 -145 -67 -49 -23 -126 -59 -170
-80 -84 -39 -772 -361 -910 -425 -44 -21 -123 -58 -175 -82 -52 -25 -268 -126
-480 -225 -212 -99 -388 -183 -393 -187 -4 -4 13 -61 37 -127 91 -249 318
-860 327 -879 5 -11 44 -117 88 -235 43 -118 116 -314 161 -435 221 -592 412
-1108 462 -1245 34 -94 38 -100 62 -90 128 49 384 187 543 292 239 158 380
281 643 557 8 9 52 61 97 116 199 245 354 504 480 805 115 272 187 533 228
815 3 23 7 51 10 63 19 102 27 541 12 702 -12 128 -17 172 -22 200 -3 14 -12
66 -21 115 -19 112 -73 321 -112 440 -35 106 -91 247 -100 257 -4 3 -50 -15
-102 -41z"/>
</g>
</svg>
