<?xml version="1.0" encoding="UTF-8" standalone="no"?>
<svg
   xmlns:dc="http://purl.org/dc/elements/1.1/"
   xmlns:cc="http://creativecommons.org/ns#"
   xmlns:rdf="http://www.w3.org/1999/02/22-rdf-syntax-ns#"
   xmlns:svg="http://www.w3.org/2000/svg"
   xmlns="http://www.w3.org/2000/svg"
   viewBox="0 0 50 49.999998"
   height="50"
   width="50"
   xml:space="preserve"
   id="svg833"
   version="1.1"><metadata
     id="metadata839"><rdf:RDF><cc:Work
         rdf:about=""><dc:format>image/svg+xml</dc:format><dc:type
           rdf:resource="http://purl.org/dc/dcmitype/StillImage" /><dc:title></dc:title></cc:Work></rdf:RDF></metadata><defs
     id="defs837"><radialGradient
       id="radialGradient873"
       spreadMethod="pad"
       gradientTransform="matrix(5.782638,0,0,-5.782638,8.694951,714.68139)"
       gradientUnits="userSpaceOnUse"
       r="103.826"
       cy="23.2617"
       cx="21.7451"
       fy="23.2617"
       fx="21.7451"><stop
         id="stop855"
         offset="0"
         style="stop-opacity:1;stop-color:#00adee" /><stop
         id="stop857"
         offset="0.0016"
         style="stop-opacity:1;stop-color:#01adee" /><stop
         id="stop859"
         offset="0.0526"
         style="stop-opacity:1;stop-color:#15abe6" /><stop
         id="stop861"
         offset="0.1029"
         style="stop-opacity:1;stop-color:#22a9e2" /><stop
         id="stop863"
         offset="0.1515"
         style="stop-opacity:1;stop-color:#26a9e0" /><stop
         id="stop865"
         offset="0.3273"
         style="stop-opacity:1;stop-color:#1b75bb" /><stop
         id="stop867"
         offset="0.5212"
         style="stop-opacity:1;stop-color:#2b388f" /><stop
         id="stop869"
         offset="0.7576"
         style="stop-opacity:1;stop-color:#1c1651" /><stop
         id="stop871"
         offset="1"
         style="stop-opacity:1;stop-color:#120742" /></radialGradient><radialGradient
       id="radialGradient905"
       spreadMethod="pad"
       gradientTransform="matrix(5.782638,0,0,-5.782638,8.694951,714.68139)"
       gradientUnits="userSpaceOnUse"
       r="103.828"
       cy="23.2598"
       cx="21.7495"
       fy="23.2598"
       fx="21.7495"><stop
         id="stop887"
         offset="0"
         style="stop-opacity:1;stop-color:#00adee" /><stop
         id="stop889"
         offset="0.0016"
         style="stop-opacity:1;stop-color:#01adee" /><stop
         id="stop891"
         offset="0.0526"
         style="stop-opacity:1;stop-color:#15abe6" /><stop
         id="stop893"
         offset="0.1029"
         style="stop-opacity:1;stop-color:#22a9e2" /><stop
         id="stop895"
         offset="0.1515"
         style="stop-opacity:1;stop-color:#26a9e0" /><stop
         id="stop897"
         offset="0.3273"
         style="stop-opacity:1;stop-color:#1b75bb" /><stop
         id="stop899"
         offset="0.5212"
         style="stop-opacity:1;stop-color:#2b388f" /><stop
         id="stop901"
         offset="0.7576"
         style="stop-opacity:1;stop-color:#1c1651" /><stop
         id="stop903"
         offset="1"
         style="stop-opacity:1;stop-color:#120742" /></radialGradient><radialGradient
       id="radialGradient925"
       spreadMethod="pad"
       gradientTransform="matrix(5.782638,-0.0294915,-0.0294915,-5.782638,-86.623749,619.63967)"
       gradientUnits="userSpaceOnUse"
       r="73.308998"
       cy="31.8027"
       cx="66.619102"
       fy="31.8027"
       fx="66.619102"><stop
         id="stop919"
         offset="0"
         style="stop-opacity:1;stop-color:#929497" /><stop
         id="stop921"
         offset="0.6727"
         style="stop-opacity:1;stop-color:#404041" /><stop
         id="stop923"
         offset="1"
         style="stop-opacity:1;stop-color:#231f20" /></radialGradient><radialGradient
       id="radialGradient945"
       spreadMethod="pad"
       gradientTransform="matrix(5.782638,0,0,-5.782638,8.694951,714.68139)"
       gradientUnits="userSpaceOnUse"
       r="73.310997"
       cy="47.433601"
       cx="48.810101"
       fy="47.433601"
       fx="48.810101"><stop
         id="stop939"
         offset="0"
         style="stop-opacity:1;stop-color:#929497" /><stop
         id="stop941"
         offset="0.6727"
         style="stop-opacity:1;stop-color:#404041" /><stop
         id="stop943"
         offset="1"
         style="stop-opacity:1;stop-color:#231f20" /></radialGradient></defs><g
     transform="matrix(1.3333333,0,0,-1.3333333,-95.682664,862.69731)"
     id="g841"><g
       transform="matrix(0.08187219,0,0,0.0822234,65.886688,593.82257)"
       id="g981"><g
         id="g845"><g
           id="g847"><g
             id="g853"><path
               id="path875"
               style="fill:url(#radialGradient873);fill-rule:evenodd;stroke:none"
               d="m 358.625,202.746 c -1.746,-0.598 -3.527,-1.211 -5.355,-1.766 0,0 0,0 -0.024,0 -1.801,-0.578 -3.582,-1.109 -5.371,-1.605 -1.305,-0.359 -2.555,-0.715 -3.797,-1.031 -0.324,-0.106 -0.637,-0.196 -0.973,-0.278 -0.621,-0.156 -1.23,-0.324 -1.886,-0.48 -0.039,-0.039 -0.157,-0.059 -0.215,-0.082 -1.352,-0.316 -2.641,-0.668 -3.981,-0.969 -1.492,-0.359 -2.957,-0.648 -4.41,-0.973 -3.101,-0.687 -6.254,-1.25 -9.429,-1.742 -0.696,-0.121 -1.364,-0.242 -2.059,-0.363 -1.43,-0.215 -2.977,-0.41 -4.402,-0.605 -1.809,-0.262 -3.606,-0.457 -5.43,-0.657 -14.981,-1.625 -30.125,-1.664 -45.109,-0.101 -1.821,0.195 -3.649,0.375 -5.43,0.613 -1.469,0.156 -2.914,0.391 -4.359,0.613 -0.915,0.133 -1.821,0.293 -2.778,0.434 -0.711,0.062 -1.461,0.219 -2.219,0.375 -0.875,0.156 -1.746,0.316 -2.613,0.473 -0.637,0.082 -1.191,0.179 -1.789,0.32 -1.191,0.234 -2.258,0.473 -3.449,0.711 -1.09,0.242 -2.199,0.48 -3.332,0.734 -7.707,1.809 -15.399,3.985 -22.992,6.602 -6.106,2.14 -12.051,4.476 -17.84,7.101 -2.321,1.012 -4.637,2.102 -6.86,3.211 -1.148,0.578 -2.257,1.125 -3.386,1.727 -2.539,1.293 -5.094,2.672 -7.594,4.062 -1.207,0.711 -2.496,1.446 -3.684,2.16 -1.148,0.672 -2.261,1.325 -3.371,2.043 -1.05,0.614 -2.058,1.289 -3.093,1.942 -1.29,0.84 -2.575,1.668 -3.844,2.523 -1.43,0.969 -2.891,1.961 -4.262,2.953 -1.406,1.032 -2.836,2.024 -4.223,3.047 -2.457,1.824 -4.836,3.692 -7.214,5.594 -1.168,0.953 -2.297,1.941 -3.454,2.895 -3.488,2.918 -6.82,5.921 -10.066,9.074 -1.07,1.035 -2.141,2.082 -3.234,3.176 -0.532,0.515 -1.032,1.07 -1.586,1.625 -0.535,0.515 -1.051,1.07 -1.606,1.601 -1.191,1.289 -2.457,2.637 -3.73,4 -0.891,1.031 -1.864,2.078 -2.778,3.152 -3.328,3.805 -6.539,7.692 -9.589,11.735 -1.114,1.469 -2.141,2.93 -3.235,4.441 -0.457,0.555 -0.816,1.125 -1.23,1.703 -1.153,1.625 -2.262,3.215 -3.348,4.899 -14.789,22.281 -25.41,47.168 -31.117,73.359 -0.516,2.141 -0.953,4.238 -1.324,6.403 -0.239,1.125 -0.457,2.277 -0.676,3.429 -0.18,1.145 -0.379,2.258 -0.535,3.387 -0.438,2.734 -0.813,5.469 -1.11,8.23 -0.136,1.102 -0.238,2.157 -0.359,3.25 -0.156,1.325 -0.277,2.661 -0.355,3.965 0,0.106 -0.043,0.196 -0.043,0.278 -0.317,3.671 -0.497,7.339 -0.594,11.023 -0.02,0.906 -0.043,1.836 -0.043,2.758 -0.078,0.949 -0.078,1.879 -0.078,2.808 0,2.204 0.078,4.383 0.097,6.524 0.059,1.863 0.121,3.73 0.219,5.551 0.082,1.824 0.203,3.648 0.34,5.511 0.102,1.348 0.223,2.735 0.359,4.102 0.18,1.969 0.375,3.926 0.653,5.914 0.199,1.477 0.394,2.953 0.597,4.453 0.196,1.473 0.438,2.965 0.719,4.457 0.195,1.488 0.473,2.957 0.813,4.461 0.238,1.473 0.554,2.965 0.851,4.442 0.016,0.121 0.039,0.277 0.082,0.374 0.512,2.508 1.149,5.036 1.738,7.512 0.165,0.414 0.219,0.891 0.36,1.313 0.75,2.89 1.527,5.718 2.336,8.551 0.039,0.109 0.082,0.23 0.097,0.308 0.418,1.375 0.852,2.75 1.309,4.121 0.457,1.348 0.891,2.723 1.371,4.067 0.078,0.316 0.195,0.601 0.317,0.89 0.578,1.723 1.226,3.446 1.886,5.211 0,0.016 0.016,0.121 0.016,0.156 1.445,3.727 2.933,7.411 4.598,11.051 0.097,0.293 0.195,0.555 0.359,0.848 0.793,1.722 1.605,3.441 2.418,5.117 0.75,1.656 1.547,3.25 2.414,4.824 0,0.039 0,0.039 0,0.086 0.555,0.988 1.07,2 1.586,3.012 0.437,0.777 0.832,1.539 1.273,2.309 0.789,1.429 1.602,2.89 2.414,4.3 0.68,1.18 1.348,2.371 2.102,3.551 0.676,1.203 1.426,2.418 2.18,3.57 0.988,1.543 1.984,3.094 2.972,4.61 0.871,1.316 1.785,2.625 2.696,3.929 2.179,3.114 4.418,6.149 6.757,9.137 2.043,2.598 4.141,5.164 6.321,7.676 0.121,0.168 0.238,0.316 0.375,0.445 1.093,1.266 2.203,2.496 3.332,3.75 0.316,0.348 0.613,0.735 0.929,1.082 l 0.043,-0.011 51.438,-50.188 24.492,-23.922 77.68,-75.777 49.429,-130.317 5.313,-13.871 0.871,-2.261 4.918,-12.981 10.82,-28.547 0.375,-0.953 0.891,-2.48 0.043,-0.059 0.316,-0.797 1.289,-3.406 z" /></g></g></g><g
         id="g877"><g
           id="g879"><g
             id="g885"><path
               id="path907"
               style="fill:url(#radialGradient905);fill-rule:evenodd;stroke:none"
               d="m 480.836,506.258 -187.703,-88.66 -10.192,42.328 -27.691,114.941 -10.723,44.625 c 1.512,0.309 3.032,0.625 4.582,0.891 1.762,0.336 3.567,0.625 5.332,0.922 1.387,0.207 2.832,0.425 4.239,0.613 16.57,2.305 33.359,2.68 49.902,1.051 2.227,-0.207 4.449,-0.457 6.641,-0.719 0.175,-0.016 0.339,-0.027 0.535,-0.078 1.691,-0.211 3.371,-0.445 5.078,-0.707 0.277,-0.016 0.516,-0.07 0.734,-0.098 1.407,-0.219 2.789,-0.457 4.141,-0.707 0.953,-0.144 1.941,-0.305 2.898,-0.531 1.504,-0.266 2.973,-0.555 4.457,-0.891 1.207,-0.246 2.434,-0.504 3.625,-0.793 7.61,-1.75 15.18,-3.914 22.594,-6.515 9.91,-3.442 19.465,-7.563 28.66,-12.282 0.039,0 0.063,0 0.121,-0.058 1.426,-0.774 2.895,-1.567 4.317,-2.332 2.058,-1.11 4.043,-2.25 6.027,-3.457 0.973,-0.531 1.902,-1.11 2.856,-1.688 1.105,-0.695 2.238,-1.406 3.371,-2.14 1.465,-0.914 2.871,-1.832 4.34,-2.832 2.871,-1.914 5.664,-3.926 8.464,-5.981 1.567,-1.18 3.153,-2.359 4.637,-3.555 6.106,-4.777 11.969,-9.914 17.524,-15.355 2.769,-2.719 5.468,-5.52 8.121,-8.359 1.293,-1.43 2.574,-2.895 3.847,-4.371 1.149,-1.293 2.242,-2.622 3.371,-3.946 1.086,-1.347 2.18,-2.676 3.25,-4.066 1.387,-1.688 2.743,-3.442 4,-5.211 0.852,-1.121 1.649,-2.281 2.504,-3.399 5.953,-8.418 11.383,-17.308 16.141,-26.64 z" /></g></g></g><g
         id="g909"><g
           id="g911"><g
             id="g917"><path
               id="path927"
               style="fill:url(#radialGradient925);stroke:none"
               d="m 529.793,396.133 c -0.043,-2.203 -0.066,-4.422 -0.121,-6.563 -0.067,-1.863 -0.156,-3.707 -0.238,-5.527 -0.082,-1.766 -0.196,-3.527 -0.36,-5.25 -0.023,-0.125 -0.023,-0.238 -0.023,-0.379 -0.121,-1.324 -0.239,-2.637 -0.375,-3.976 -0.36,-3.594 -0.793,-7.137 -1.383,-10.688 -0.156,-1.484 -0.473,-2.996 -0.691,-4.457 -0.262,-1.469 -0.5,-2.957 -0.817,-4.461 -0.301,-1.484 -0.597,-2.953 -0.91,-4.418 -0.301,-1.289 -0.602,-2.555 -0.871,-3.844 -0.973,-4.238 -2.102,-8.488 -3.371,-12.652 -0.516,-1.621 -1.031,-3.285 -1.543,-4.875 -0.563,-1.664 -1.09,-3.234 -1.668,-4.875 -0.473,-1.371 -0.992,-2.699 -1.508,-4.066 -0.476,-1.348 -0.988,-2.676 -1.566,-4.016 -0.891,-2.344 -1.903,-4.688 -2.938,-6.981 -0.492,-1.234 -1.012,-2.378 -1.57,-3.57 -0.039,-0.078 -0.078,-0.078 -0.078,-0.133 -0.2,-0.375 -0.344,-0.773 -0.516,-1.148 -0.121,-0.223 -0.195,-0.477 -0.316,-0.672 -0.403,-0.816 -0.84,-1.664 -1.192,-2.48 -0.199,-0.317 -0.343,-0.629 -0.476,-0.93 -0.637,-1.211 -1.207,-2.418 -1.821,-3.61 -0.629,-1.265 -1.312,-2.535 -1.984,-3.765 -1.82,-3.324 -3.73,-6.598 -5.707,-9.789 -1.707,-2.828 -3.504,-5.649 -5.371,-8.34 -0.973,-1.426 -1.969,-2.875 -2.957,-4.262 -1.035,-1.406 -2.059,-2.832 -3.07,-4.179 -1.207,-1.567 -2.36,-3.133 -3.567,-4.645 -4.859,-6.105 -10.027,-11.894 -15.48,-17.398 -2.719,-2.778 -5.512,-5.473 -8.387,-8.086 -1.445,-1.293 -2.914,-2.578 -4.383,-3.868 -1.324,-1.105 -2.629,-2.222 -3.976,-3.308 -1.348,-1.11 -2.68,-2.18 -4.024,-3.254 -1.308,-0.988 -2.617,-1.984 -3.922,-2.996 -0.121,-0.059 -0.285,-0.176 -0.398,-0.277 -0.949,-0.735 -1.945,-1.407 -2.914,-2.118 -0.852,-0.636 -1.727,-1.25 -2.633,-1.863 -0.375,-0.258 -0.758,-0.555 -1.172,-0.773 -1.406,-0.973 -2.789,-1.926 -4.219,-2.832 -1.566,-1.036 -3.215,-2.028 -4.797,-3.032 -2.418,-1.488 -4.875,-2.914 -7.351,-4.304 -0.016,0 -0.016,0 -0.016,0 -1.312,-0.75 -2.66,-1.461 -3.968,-2.157 -1.192,-0.652 -2.375,-1.269 -3.586,-1.882 -5.157,-2.614 -10.391,-4.993 -15.723,-7.235 -0.016,-0.019 -0.121,-0.043 -0.156,-0.058 l -1.836,4.875 -1.61,4.382 -0.121,0.254 -0.082,0.286 -0.773,2.023 -0.254,0.711 -12.168,32.625 -4.066,10.844 -0.813,2.058 -4.543,12.309 -47.266,126.375 190.157,88.59 c 3.371,-7.848 6.246,-15.938 8.687,-24.129 1.485,-5.086 2.809,-10.203 3.926,-15.332 0.277,-1.278 0.512,-2.574 0.77,-3.856 0.535,-2.566 1.011,-5.176 1.41,-7.75 0.195,-1.304 0.39,-2.605 0.593,-3.926 0.133,-0.972 0.262,-1.984 0.395,-2.972 0.195,-1.606 0.359,-3.211 0.516,-4.817 0,-0.156 0.078,-0.359 0.078,-0.578 0.164,-1.64 0.324,-3.308 0.441,-4.937 0,-0.278 0.059,-0.516 0.059,-0.793 0.195,-2.637 0.34,-5.258 0.433,-7.871 v -0.258 c 0.102,-1.504 0.121,-2.996 0.121,-4.52 0.016,-1.203 0.059,-2.394 0.059,-3.601 z" /></g></g></g><g
         id="g929"><g
           id="g931"><g
             id="g937"><path
               id="path947"
               style="fill:url(#radialGradient945);fill-rule:evenodd;stroke:none"
               d="m 253.613,491.598 -26.773,111.316 -7.235,29.973 c -1.07,4.054 -1.863,8.246 -3.054,12.234 -0.18,0.516 -0.235,0.973 -0.235,1.441 l -0.128,0.461 c -22.672,-6.222 -44.122,-16.148 -63.547,-29.195 -1.625,-1.109 -3.254,-2.23 -4.856,-3.348 -1.566,-1.14 -3.133,-2.296 -4.703,-3.48 -1.543,-1.18 -3.109,-2.371 -4.66,-3.594 -1.527,-1.203 -3.012,-2.457 -4.5,-3.695 -0.195,-0.149 -0.391,-0.305 -0.555,-0.484 -1.402,-1.168 -2.769,-2.375 -4.16,-3.579 -1.906,-1.707 -3.766,-3.441 -5.547,-5.136 l 38.766,-37.86 61.445,-59.906 37.266,-36.344 z" /></g></g></g></g></g></svg>
